<?xml version="1.0" standalone="no"?>
<!DOCTYPE svg PUBLIC "-//W3C//DTD SVG 20010904//EN"
 "http://www.w3.org/TR/2001/REC-SVG-20010904/DTD/svg10.dtd">
<svg version="1.0" xmlns="http://www.w3.org/2000/svg"
 width="20.000000pt" height="20.000000pt" viewBox="0 0 64.000000 64.000000"
 preserveAspectRatio="xMidYMid meet">

<g transform="translate(0.000000,64.000000) scale(0.100000,-0.100000)"
fill="current" stroke="none">
<path d="M507 609 c-80 -19 -136 -58 -207 -144 -51 -61 -52 -62 -133 -81 -65
-14 -88 -25 -110 -48 -15 -17 -26 -35 -24 -41 2 -5 31 -11 65 -13 34 -2 62 -5
62 -7 0 -18 -27 -55 -46 -64 -35 -16 -64 -69 -64 -118 0 -42 0 -43 35 -43 50
0 103 24 116 53 10 23 46 47 69 47 6 0 10 -24 10 -54 0 -30 4 -58 10 -61 19
-12 70 38 81 79 33 132 37 139 100 191 34 28 74 68 89 91 34 48 63 141 58 186
-3 30 -6 33 -38 35 -19 1 -52 -3 -73 -8z m89 -61 c-12 -95 -47 -150 -160 -248
-56 -49 -113 -98 -127 -109 l-26 -20 -56 57 -56 57 95 110 c52 61 109 122 127
137 l32 27 27 -26 c34 -33 50 -22 18 12 -21 22 -21 25 -5 31 29 12 79 22 109
23 l29 1 -7 -52z m-376 -173 c0 -2 -14 -20 -31 -40 -28 -31 -36 -35 -81 -35
-50 0 -50 0 -36 22 10 15 37 28 79 39 35 10 65 18 67 18 1 1 2 -1 2 -4z m13
-212 c-14 -11 -21 -9 -45 14 -27 26 -35 52 -21 67 4 3 24 -11 45 -31 35 -35
37 -39 21 -50z m129 -5 c-24 -102 -62 -131 -62 -49 0 45 3 52 38 80 20 17 38
30 38 31 1 0 -5 -28 -14 -62z m-173 -39 c-12 -24 -61 -49 -94 -49 -22 0 -25 4
-25 36 0 26 8 43 31 66 l30 31 34 -33 c27 -27 32 -37 24 -51z"/>
<path d="M500 492 c0 -14 39 -46 47 -39 3 4 -2 16 -12 27 -19 21 -35 26 -35
12z"/>
<path d="M390 470 c-11 -11 -20 -29 -20 -40 0 -11 9 -29 20 -40 11 -11 29 -20
40 -20 26 0 60 34 60 60 0 11 -9 29 -20 40 -11 11 -29 20 -40 20 -11 0 -29 -9
-40 -20z m70 -15 c26 -32 -13 -81 -47 -59 -23 14 -28 41 -13 59 16 19 44 19
60 0z"/>
<path d="M350 355 c7 -8 16 -12 21 -9 13 8 1 24 -18 24 -13 0 -13 -3 -3 -15z"/>
<path d="M312 329 c2 -7 10 -15 17 -17 8 -3 12 1 9 9 -2 7 -10 15 -17 17 -8 3
-12 -1 -9 -9z"/>
<path d="M270 296 c0 -2 7 -9 15 -16 12 -10 15 -10 15 4 0 9 -7 16 -15 16 -8
0 -15 -2 -15 -4z"/>
<path d="M242 259 c2 -7 10 -15 17 -17 8 -3 12 1 9 9 -2 7 -10 15 -17 17 -8 3
-12 -1 -9 -9z"/>
</g>
</svg>
