<?xml version="1.0" standalone="no"?>
<!DOCTYPE svg PUBLIC "-//W3C//DTD SVG 20010904//EN"
 "http://www.w3.org/TR/2001/REC-SVG-20010904/DTD/svg10.dtd">
<svg version="1.0" xmlns="http://www.w3.org/2000/svg"
 width="14.000000pt" height="14.000000pt" viewBox="0 0 512.000000 512.000000"
 preserveAspectRatio="xMidYMid meet">

<g transform="translate(0.000000,512.000000) scale(0.100000,-0.100000)"
fill="current" stroke="none">
<path d="M70 5050 c-25 -25 -26 -81 -1 -673 l18 -439 34 -33 c27 -25 3022
-2539 3092 -2594 15 -12 25 -6 96 62 83 79 114 100 169 112 17 3 32 10 32 13
0 4 -567 574 -1260 1267 -693 693 -1260 1268 -1260 1277 0 53 54 97 102 83 13
-4 588 -571 1278 -1261 l1255 -1254 12 39 c18 61 31 81 111 163 50 52 71 81
66 90 -13 21 -2564 3060 -2599 3097 l-33 34 -439 18 c-593 25 -648 24 -673 -1z"/>
<path d="M4342 5050 l-404 -17 -33 -34 c-18 -19 -293 -344 -611 -724 -317
-379 -597 -714 -622 -742 l-44 -53 152 -182 c84 -101 161 -192 172 -203 18
-19 25 -13 546 508 290 290 535 527 544 527 46 0 88 -42 88 -88 0 -9 -239
-256 -531 -548 -369 -369 -529 -536 -524 -545 23 -36 317 -379 326 -379 10 0
1595 1326 1619 1355 10 12 18 129 31 458 10 243 18 488 19 545 0 144 2 142
-182 141 -79 -1 -324 -9 -546 -19z"/>
<path d="M1522 2162 c-114 -136 -212 -253 -216 -260 -5 -9 18 -40 67 -92 79
-82 100 -113 112 -167 3 -18 10 -33 13 -33 9 0 542 533 542 541 0 7 -296 259
-304 259 -3 0 -99 -111 -214 -248z"/>
<path d="M346 2239 c-33 -26 -33 -39 -1 -287 19 -149 29 -199 44 -220 11 -15
108 -115 215 -222 l196 -195 -354 -355 c-406 -408 -391 -387 -391 -555 0 -90
3 -105 28 -153 39 -75 87 -124 159 -163 60 -32 68 -34 163 -34 168 0 147 -15
555 391 l355 354 195 -196 c107 -107 207 -204 222 -215 21 -15 72 -25 225 -45
233 -29 259 -29 286 8 l20 26 -28 219 c-15 120 -31 225 -35 233 -10 17 -543
550 -551 550 -17 0 -233 31 -236 33 -2 2 -10 54 -18 116 -8 61 -19 119 -24
129 -18 31 -547 552 -561 552 -8 0 -103 11 -210 25 -235 30 -221 30 -254 4z"/>
<path d="M4590 2245 c-52 -7 -140 -19 -195 -25 l-100 -12 -268 -267 c-148
-146 -273 -274 -278 -283 -5 -10 -16 -68 -24 -129 -8 -62 -16 -114 -18 -116
-3 -2 -219 -33 -236 -33 -8 0 -541 -533 -551 -550 -4 -8 -20 -113 -35 -233
l-28 -219 20 -26 c27 -37 53 -37 286 -8 153 20 204 30 225 45 15 11 115 108
222 215 l195 196 355 -354 c408 -406 387 -391 555 -391 95 0 103 2 163 34 72
39 120 88 159 163 25 48 28 62 28 158 0 161 10 147 -396 555 l-349 350 196
195 c107 107 204 207 215 222 15 21 25 71 44 220 32 248 32 261 -1 287 -30 24
-48 24 -184 6z"/>
<path d="M1876 1771 l-278 -278 38 -8 c59 -11 89 -30 174 -112 51 -48 83 -72
91 -67 31 19 569 476 569 483 0 9 -283 249 -302 256 -7 3 -132 -114 -292 -274z"/>
</g>
</svg>
