<?xml version="1.0" standalone="no"?>
<!DOCTYPE svg PUBLIC "-//W3C//DTD SVG 20010904//EN"
 "http://www.w3.org/TR/2001/REC-SVG-20010904/DTD/svg10.dtd">
<svg version="1.0" xmlns="http://www.w3.org/2000/svg"
 width="17.000000pt" height="17.000000pt" viewBox="0 0 50.000000 50.000000"
 preserveAspectRatio="xMidYMid meet">

<g transform="translate(0.000000,50.000000) scale(0.100000,-0.100000)"
fill="current" stroke="none">
<path d="M155 456 c-60 -28 -87 -56 -114 -116 -36 -79 -19 -183 42 -249 33
-36 115 -71 167 -71 52 0 134 35 167 71 34 37 63 110 63 159 0 52 -35 134 -71
167 -37 34 -110 63 -159 63 -27 0 -65 -10 -95 -24z m85 -10 c0 -14 -37 -29
-52 -20 -14 9 -9 22 10 27 32 9 42 7 42 -7z m79 -2 c3 -2 0 -9 -5 -14 -13 -13
-54 -1 -54 17 0 12 7 13 27 8 16 -4 30 -9 32 -11z m-149 -24 c0 -5 -9 -14 -21
-21 -31 -16 -47 4 -18 24 22 16 39 14 39 -3z m213 -16 c-3 -15 -18 -15 -37 -1
-28 20 -11 43 17 24 12 -8 21 -18 20 -23z m-70 -8 c104 -43 128 -175 47 -256
-67 -67 -153 -67 -220 0 -124 124 11 324 173 256z m-212 -45 c-7 -12 -16 -21
-21 -21 -17 0 -19 17 -3 39 20 29 40 13 24 -18z m333 -12 c-9 -15 -23 -10 -34
11 -17 32 0 47 22 21 10 -13 15 -27 12 -32z m-360 -27 c9 -15 -6 -52 -20 -52
-16 0 -16 5 -8 38 6 22 19 29 28 14z m380 -14 c8 -33 8 -38 -8 -38 -14 0 -29
37 -20 52 9 15 22 8 28 -14z m-380 -80 c3 -13 1 -27 -4 -32 -12 -12 -17 -7
-25 27 -5 20 -4 27 8 27 8 0 17 -10 21 -22z m381 -5 c-8 -34 -13 -39 -25 -27
-13 13 -1 54 17 54 12 0 13 -7 8 -27z m-354 -64 c16 -31 -4 -47 -24 -18 -16
22 -14 39 3 39 5 0 14 -9 21 -21z m333 13 c3 -5 -2 -19 -11 -31 -20 -29 -40
-13 -24 18 12 22 26 27 35 13z m-278 -66 c13 -10 16 -18 9 -25 -13 -13 -59 15
-50 30 8 13 18 11 41 -5z m229 5 c9 -15 -37 -43 -50 -30 -7 7 -4 15 9 25 23
16 33 18 41 5z m-154 -31 c5 0 9 -7 9 -16 0 -13 -6 -15 -27 -9 -34 8 -37 11
-28 25 4 6 14 9 22 6 8 -3 19 -6 24 -6z m84 -1 c9 -13 6 -16 -28 -24 -21 -6
-27 -4 -27 8 0 13 12 21 42 26 4 0 10 -4 13 -10z"/>
<path d="M174 318 c-4 -6 4 -19 19 -30 34 -25 34 -51 0 -76 -23 -17 -26 -23
-15 -34 11 -11 17 -8 34 15 11 15 28 27 38 27 10 0 27 -12 38 -27 17 -23 23
-26 34 -15 11 11 8 17 -14 34 -16 11 -28 28 -28 38 0 10 12 27 28 38 22 17 25
23 14 34 -11 11 -17 8 -34 -14 -25 -35 -53 -36 -74 -3 -18 27 -29 31 -40 13z
m86 -68 c0 -5 -4 -10 -10 -10 -5 0 -10 5 -10 10 0 6 5 10 10 10 6 0 10 -4 10
-10z"/>
</g>
</svg>
