<?xml version="1.0" standalone="no"?>
<!DOCTYPE svg PUBLIC "-//W3C//DTD SVG 20010904//EN"
 "http://www.w3.org/TR/2001/REC-SVG-20010904/DTD/svg10.dtd">
<svg version="1.0" xmlns="http://www.w3.org/2000/svg"
 width="20.000000pt" height="20.000000pt" viewBox="0 0 512.000000 512.000000"
 preserveAspectRatio="xMidYMid meet">

<g transform="translate(0.000000,512.000000) scale(0.100000,-0.100000)"
fill="current" stroke="none">
<path d="M1526 4195 c-677 -264 -1016 -401 -1032 -417 -12 -13 -127 -204 -254
-426 -214 -370 -232 -405 -227 -438 4 -20 13 -44 22 -54 9 -10 108 -53 220
-96 l204 -79 3 -657 3 -658 26 -26 c19 -18 301 -133 1040 -420 557 -217 1021
-394 1030 -394 9 0 472 177 1029 394 745 290 1019 401 1039 420 l26 26 3 658
3 657 206 79 c179 70 208 84 224 110 11 17 19 42 19 55 0 27 -448 812 -485
850 -25 26 -2031 812 -2069 810 -11 0 -475 -178 -1030 -394z m1891 -147 c470
-182 850 -335 846 -339 -4 -4 -386 -154 -848 -334 -539 -209 -849 -325 -865
-322 -28 4 -1680 645 -1693 656 -6 6 1668 666 1698 670 5 0 393 -148 862 -331z
m-1838 -837 c453 -177 826 -323 829 -326 3 -3 -289 -518 -337 -594 -8 -12
-173 49 -910 335 -495 192 -901 352 -901 355 0 5 305 539 335 586 l14 21 73
-28 c40 -16 444 -173 897 -349z m3115 65 c91 -159 166 -292 166 -295 0 -6
-1743 -686 -1785 -697 -17 -4 -44 36 -195 297 -96 167 -170 304 -165 307 6 2
410 160 900 351 643 251 893 345 901 337 6 -6 86 -141 178 -300z m-3299 -955
c747 -291 737 -288 782 -238 11 12 78 123 149 247 l129 225 3 -884 c1 -486 1
-886 -1 -887 -2 -2 -406 153 -898 344 l-894 348 -3 563 c-2 533 -1 563 15 559
10 -3 333 -128 718 -277z m3063 -283 l-3 -563 -894 -348 c-492 -191 -896 -346
-898 -344 -2 2 -2 402 -1 888 l3 884 133 -232 c74 -127 142 -239 152 -248 45
-41 50 -39 785 249 385 151 706 274 713 275 10 1 12 -114 10 -561z"/>
</g>
</svg>
